solid cleaned_mesh
  facet normal 0.00000000 0.00000000 -1.00000000
    outer loop
      vertex 0.00000000 0.00000000 0.00000000
      vertex 20.00000000 12.00000000 0.00000000
      vertex 20.00000000 0.00000000 0.00000000
    endloop
  endfacet
  facet normal 0.00000000 0.00000000 -1.00000000
    outer loop
      vertex 0.00000000 0.00000000 0.00000000
      vertex 0.00000000 12.00000000 0.00000000
      vertex 20.00000000 12.00000000 0.00000000
    endloop
  endfacet
  facet normal -0.28734789 0.00000000 0.95782629
    outer loop
      vertex 0.00000000 0.00000000 10.00000000
      vertex 20.00000000 0.00000000 16.00000000
      vertex 20.00000000 12.00000000 16.00000000
    endloop
  endfacet
  facet normal -0.28734789 0.00000000 0.95782629
    outer loop
      vertex 0.00000000 0.00000000 10.00000000
      vertex 20.00000000 12.00000000 16.00000000
      vertex 0.00000000 12.00000000 10.00000000
    endloop
  endfacet
  facet normal 0.00000000 -1.00000000 0.00000000
    outer loop
      vertex 0.00000000 0.00000000 0.00000000
      vertex 20.00000000 0.00000000 0.00000000
      vertex 20.00000000 0.00000000 16.00000000
    endloop
  endfacet
  facet normal 0.00000000 -1.00000000 0.00000000
    outer loop
      vertex 0.00000000 0.00000000 0.00000000
      vertex 20.00000000 0.00000000 16.00000000
      vertex 0.00000000 0.00000000 10.00000000
    endloop
  endfacet
  facet normal 0.00000000 1.00000000 0.00000000
    outer loop
      vertex 0.00000000 12.00000000 0.00000000
      vertex 20.00000000 12.00000000 16.00000000
      vertex 20.00000000 12.00000000 0.00000000
    endloop
  endfacet
  facet normal 0.00000000 1.00000000 0.00000000
    outer loop
      vertex 0.00000000 12.00000000 0.00000000
      vertex 0.00000000 12.00000000 10.00000000
      vertex 20.00000000 12.00000000 16.00000000
    endloop
  endfacet
  facet normal -1.00000000 0.00000000 0.00000000
    outer loop
      vertex 0.00000000 0.00000000 0.00000000
      vertex 0.00000000 0.00000000 10.00000000
      vertex 0.00000000 12.00000000 10.00000000
    endloop
  endfacet
  facet normal -1.00000000 0.00000000 0.00000000
    outer loop
      vertex 0.00000000 0.00000000 0.00000000
      vertex 0.00000000 12.00000000 10.00000000
      vertex 0.00000000 12.00000000 0.00000000
    endloop
  endfacet
  facet normal 1.00000000 0.00000000 0.00000000
    outer loop
      vertex 20.00000000 0.00000000 0.00000000
      vertex 20.00000000 12.00000000 0.00000000
      vertex 20.00000000 12.00000000 16.00000000
    endloop
  endfacet
  facet normal 1.00000000 0.00000000 0.00000000
    outer loop
      vertex 20.00000000 0.00000000 0.00000000
      vertex 20.00000000 12.00000000 16.00000000
      vertex 20.00000000 0.00000000 16.00000000
    endloop
  endfacet
endsolid cleaned_mesh
