solid cleaned_mesh
  facet normal 0.00000000 0.00000000 -1.00000000
    outer loop
      vertex 0.00000000 0.00000000 0.00000000
      vertex 24.00000000 14.00000000 0.00000000
      vertex 24.00000000 0.00000000 0.00000000
    endloop
  endfacet
  facet normal 0.00000000 0.00000000 -1.00000000
    outer loop
      vertex 0.00000000 0.00000000 0.00000000
      vertex 0.00000000 14.00000000 0.00000000
      vertex 24.00000000 14.00000000 0.00000000
    endloop
  endfacet
  facet normal 0.00000000 0.00000000 1.00000000
    outer loop
      vertex 0.00000000 0.00000000 8.00000000
      vertex 24.00000000 0.00000000 8.00000000
      vertex 24.00000000 14.00000000 8.00000000
    endloop
  endfacet
  facet normal 0.00000000 0.00000000 1.00000000
    outer loop
      vertex 0.00000000 0.00000000 8.00000000
      vertex 24.00000000 14.00000000 8.00000000
      vertex 0.00000000 14.00000000 8.00000000
    endloop
  endfacet
  facet normal 0.00000000 -1.00000000 0.00000000
    outer loop
      vertex 0.00000000 0.00000000 0.00000000
      vertex 24.00000000 0.00000000 0.00000000
      vertex 24.00000000 0.00000000 8.00000000
    endloop
  endfacet
  facet normal 0.00000000 -1.00000000 0.00000000
    outer loop
      vertex 0.00000000 0.00000000 0.00000000
      vertex 24.00000000 0.00000000 8.00000000
      vertex 0.00000000 0.00000000 8.00000000
    endloop
  endfacet
  facet normal 0.00000000 1.00000000 0.00000000
    outer loop
      vertex 0.00000000 14.00000000 0.00000000
      vertex 24.00000000 14.00000000 8.00000000
      vertex 24.00000000 14.00000000 0.00000000
    endloop
  endfacet
  facet normal 0.00000000 1.00000000 0.00000000
    outer loop
      vertex 0.00000000 14.00000000 0.00000000
      vertex 0.00000000 14.00000000 8.00000000
      vertex 24.00000000 14.00000000 8.00000000
    endloop
  endfacet
  facet normal -1.00000000 0.00000000 0.00000000
    outer loop
      vertex 0.00000000 0.00000000 0.00000000
      vertex 0.00000000 0.00000000 8.00000000
      vertex 0.00000000 14.00000000 8.00000000
    endloop
  endfacet
  facet normal -1.00000000 0.00000000 0.00000000
    outer loop
      vertex 0.00000000 0.00000000 0.00000000
      vertex 0.00000000 14.00000000 8.00000000
      vertex 0.00000000 14.00000000 0.00000000
    endloop
  endfacet
  facet normal 1.00000000 0.00000000 0.00000000
    outer loop
      vertex 24.00000000 0.00000000 0.00000000
      vertex 24.00000000 14.00000000 0.00000000
      vertex 24.00000000 14.00000000 8.00000000
    endloop
  endfacet
  facet normal 1.00000000 0.00000000 0.00000000
    outer loop
      vertex 24.00000000 0.00000000 0.00000000
      vertex 24.00000000 14.00000000 8.00000000
      vertex 24.00000000 0.00000000 8.00000000
    endloop
  endfacet
endsolid cleaned_mesh
